<mxfile host="app.diagrams.net" modified="2024-05-30T07:34:56.518Z" agent="Mozilla/5.0 (Macintosh; Intel Mac OS X 10_15_7) AppleWebKit/605.1.15 (KHTML, like Gecko) Version/17.5 Safari/605.1.15" etag="lIjkRG6i76Gg7_GSgOkZ" version="24.4.9" type="github">
  <diagram name="Page-1" id="5Ra6DKYu1FGgNqw93BL7">
    <mxGraphModel dx="1026" dy="692" grid="1" gridSize="10" guides="1" tooltips="1" connect="1" arrows="1" fold="1" page="1" pageScale="1" pageWidth="827" pageHeight="1169" math="0" shadow="0">
      <root>
        <mxCell id="0" />
        <mxCell id="1" parent="0" />
        <mxCell id="tCx_VXpLpX52O19AuWsl-148" value="Daxil olan sorgular üzrə öncəliklərin təyin olunması" style="shape=table;startSize=30;container=1;collapsible=0;childLayout=tableLayout;strokeColor=default;fontSize=16;" parent="1" vertex="1">
          <mxGeometry x="50" y="150" width="720" height="470" as="geometry" />
        </mxCell>
        <mxCell id="tCx_VXpLpX52O19AuWsl-149" value="" style="shape=tableRow;horizontal=0;startSize=0;swimlaneHead=0;swimlaneBody=0;strokeColor=inherit;top=0;left=0;bottom=0;right=0;collapsible=0;dropTarget=0;fillColor=none;points=[[0,0.5],[1,0.5]];portConstraint=eastwest;fontSize=16;" parent="tCx_VXpLpX52O19AuWsl-148" vertex="1">
          <mxGeometry y="30" width="720" height="110" as="geometry" />
        </mxCell>
        <mxCell id="tCx_VXpLpX52O19AuWsl-150" value="" style="shape=partialRectangle;html=1;whiteSpace=wrap;connectable=0;strokeColor=inherit;overflow=hidden;fillColor=none;top=0;left=0;bottom=0;right=0;pointerEvents=1;fontSize=16;strokeWidth=0;" parent="tCx_VXpLpX52O19AuWsl-149" vertex="1">
          <mxGeometry width="90" height="110" as="geometry">
            <mxRectangle width="90" height="110" as="alternateBounds" />
          </mxGeometry>
        </mxCell>
        <mxCell id="tCx_VXpLpX52O19AuWsl-151" value="BUG" style="shape=partialRectangle;html=1;whiteSpace=wrap;connectable=0;strokeColor=inherit;overflow=hidden;fillColor=none;top=0;left=0;bottom=0;right=0;pointerEvents=1;fontSize=16;" parent="tCx_VXpLpX52O19AuWsl-149" vertex="1">
          <mxGeometry x="90" width="200" height="110" as="geometry">
            <mxRectangle width="200" height="110" as="alternateBounds" />
          </mxGeometry>
        </mxCell>
        <mxCell id="tCx_VXpLpX52O19AuWsl-152" value="Dəyişiklik və ya yeni funksionallıq" style="shape=partialRectangle;html=1;whiteSpace=wrap;connectable=0;strokeColor=inherit;overflow=hidden;fillColor=none;top=0;left=0;bottom=0;right=0;pointerEvents=1;fontSize=16;" parent="tCx_VXpLpX52O19AuWsl-149" vertex="1">
          <mxGeometry x="290" width="260" height="110" as="geometry">
            <mxRectangle width="260" height="110" as="alternateBounds" />
          </mxGeometry>
        </mxCell>
        <mxCell id="tCx_VXpLpX52O19AuWsl-161" value="Layihə tapşırıqları" style="shape=partialRectangle;html=1;whiteSpace=wrap;connectable=0;strokeColor=inherit;overflow=hidden;fillColor=none;top=0;left=0;bottom=0;right=0;pointerEvents=1;fontSize=16;" parent="tCx_VXpLpX52O19AuWsl-149" vertex="1">
          <mxGeometry x="550" width="170" height="110" as="geometry">
            <mxRectangle width="170" height="110" as="alternateBounds" />
          </mxGeometry>
        </mxCell>
        <mxCell id="tCx_VXpLpX52O19AuWsl-164" style="shape=tableRow;horizontal=0;startSize=0;swimlaneHead=0;swimlaneBody=0;strokeColor=inherit;top=0;left=0;bottom=0;right=0;collapsible=0;dropTarget=0;fillColor=none;points=[[0,0.5],[1,0.5]];portConstraint=eastwest;fontSize=16;" parent="tCx_VXpLpX52O19AuWsl-148" vertex="1">
          <mxGeometry y="140" width="720" height="110" as="geometry" />
        </mxCell>
        <mxCell id="tCx_VXpLpX52O19AuWsl-165" value="" style="shape=partialRectangle;html=1;whiteSpace=wrap;connectable=0;strokeColor=inherit;overflow=hidden;fillColor=none;top=0;left=0;bottom=0;right=0;pointerEvents=1;fontSize=16;strokeWidth=0;" parent="tCx_VXpLpX52O19AuWsl-164" vertex="1">
          <mxGeometry width="90" height="110" as="geometry">
            <mxRectangle width="90" height="110" as="alternateBounds" />
          </mxGeometry>
        </mxCell>
        <mxCell id="tCx_VXpLpX52O19AuWsl-166" style="shape=partialRectangle;html=1;whiteSpace=wrap;connectable=0;strokeColor=inherit;overflow=hidden;fillColor=none;top=0;left=0;bottom=0;right=0;pointerEvents=1;fontSize=16;" parent="tCx_VXpLpX52O19AuWsl-164" vertex="1">
          <mxGeometry x="90" width="200" height="110" as="geometry">
            <mxRectangle width="200" height="110" as="alternateBounds" />
          </mxGeometry>
        </mxCell>
        <mxCell id="tCx_VXpLpX52O19AuWsl-167" style="shape=partialRectangle;html=1;whiteSpace=wrap;connectable=0;strokeColor=inherit;overflow=hidden;fillColor=none;top=0;left=0;bottom=0;right=0;pointerEvents=1;fontSize=16;" parent="tCx_VXpLpX52O19AuWsl-164" vertex="1">
          <mxGeometry x="290" width="260" height="110" as="geometry">
            <mxRectangle width="260" height="110" as="alternateBounds" />
          </mxGeometry>
        </mxCell>
        <mxCell id="tCx_VXpLpX52O19AuWsl-168" style="shape=partialRectangle;html=1;whiteSpace=wrap;connectable=0;strokeColor=inherit;overflow=hidden;fillColor=none;top=0;left=0;bottom=0;right=0;pointerEvents=1;fontSize=16;" parent="tCx_VXpLpX52O19AuWsl-164" vertex="1">
          <mxGeometry x="550" width="170" height="110" as="geometry">
            <mxRectangle width="170" height="110" as="alternateBounds" />
          </mxGeometry>
        </mxCell>
        <mxCell id="tCx_VXpLpX52O19AuWsl-153" value="" style="shape=tableRow;horizontal=0;startSize=0;swimlaneHead=0;swimlaneBody=0;strokeColor=inherit;top=0;left=0;bottom=0;right=0;collapsible=0;dropTarget=0;fillColor=none;points=[[0,0.5],[1,0.5]];portConstraint=eastwest;fontSize=16;" parent="tCx_VXpLpX52O19AuWsl-148" vertex="1">
          <mxGeometry y="250" width="720" height="110" as="geometry" />
        </mxCell>
        <mxCell id="tCx_VXpLpX52O19AuWsl-154" value="Şirkət rəhbərliyi" style="shape=partialRectangle;html=1;whiteSpace=wrap;connectable=0;strokeColor=inherit;overflow=hidden;fillColor=none;top=0;left=0;bottom=0;right=0;pointerEvents=1;fontSize=16;" parent="tCx_VXpLpX52O19AuWsl-153" vertex="1">
          <mxGeometry width="90" height="110" as="geometry">
            <mxRectangle width="90" height="110" as="alternateBounds" />
          </mxGeometry>
        </mxCell>
        <mxCell id="tCx_VXpLpX52O19AuWsl-155" value="" style="shape=partialRectangle;html=1;whiteSpace=wrap;connectable=0;strokeColor=inherit;overflow=hidden;fillColor=none;top=0;left=0;bottom=0;right=0;pointerEvents=1;fontSize=16;" parent="tCx_VXpLpX52O19AuWsl-153" vertex="1">
          <mxGeometry x="90" width="200" height="110" as="geometry">
            <mxRectangle width="200" height="110" as="alternateBounds" />
          </mxGeometry>
        </mxCell>
        <mxCell id="tCx_VXpLpX52O19AuWsl-156" value="" style="shape=partialRectangle;html=1;whiteSpace=wrap;connectable=0;strokeColor=inherit;overflow=hidden;fillColor=none;top=0;left=0;bottom=0;right=0;pointerEvents=1;fontSize=16;" parent="tCx_VXpLpX52O19AuWsl-153" vertex="1">
          <mxGeometry x="290" width="260" height="110" as="geometry">
            <mxRectangle width="260" height="110" as="alternateBounds" />
          </mxGeometry>
        </mxCell>
        <mxCell id="tCx_VXpLpX52O19AuWsl-162" style="shape=partialRectangle;html=1;whiteSpace=wrap;connectable=0;strokeColor=inherit;overflow=hidden;fillColor=none;top=0;left=0;bottom=0;right=0;pointerEvents=1;fontSize=16;" parent="tCx_VXpLpX52O19AuWsl-153" vertex="1">
          <mxGeometry x="550" width="170" height="110" as="geometry">
            <mxRectangle width="170" height="110" as="alternateBounds" />
          </mxGeometry>
        </mxCell>
        <mxCell id="tCx_VXpLpX52O19AuWsl-157" value="" style="shape=tableRow;horizontal=0;startSize=0;swimlaneHead=0;swimlaneBody=0;strokeColor=inherit;top=0;left=0;bottom=0;right=0;collapsible=0;dropTarget=0;fillColor=none;points=[[0,0.5],[1,0.5]];portConstraint=eastwest;fontSize=16;" parent="tCx_VXpLpX52O19AuWsl-148" vertex="1">
          <mxGeometry y="360" width="720" height="110" as="geometry" />
        </mxCell>
        <mxCell id="tCx_VXpLpX52O19AuWsl-158" value="Digər şöbə və bölmələr" style="shape=partialRectangle;html=1;whiteSpace=wrap;connectable=0;strokeColor=inherit;overflow=hidden;fillColor=none;top=0;left=0;bottom=0;right=0;pointerEvents=1;fontSize=16;" parent="tCx_VXpLpX52O19AuWsl-157" vertex="1">
          <mxGeometry width="90" height="110" as="geometry">
            <mxRectangle width="90" height="110" as="alternateBounds" />
          </mxGeometry>
        </mxCell>
        <mxCell id="tCx_VXpLpX52O19AuWsl-159" value="" style="shape=partialRectangle;html=1;whiteSpace=wrap;connectable=0;strokeColor=inherit;overflow=hidden;fillColor=none;top=0;left=0;bottom=0;right=0;pointerEvents=1;fontSize=16;" parent="tCx_VXpLpX52O19AuWsl-157" vertex="1">
          <mxGeometry x="90" width="200" height="110" as="geometry">
            <mxRectangle width="200" height="110" as="alternateBounds" />
          </mxGeometry>
        </mxCell>
        <mxCell id="tCx_VXpLpX52O19AuWsl-160" value="" style="shape=partialRectangle;html=1;whiteSpace=wrap;connectable=0;strokeColor=inherit;overflow=hidden;fillColor=none;top=0;left=0;bottom=0;right=0;pointerEvents=1;fontSize=16;" parent="tCx_VXpLpX52O19AuWsl-157" vertex="1">
          <mxGeometry x="290" width="260" height="110" as="geometry">
            <mxRectangle width="260" height="110" as="alternateBounds" />
          </mxGeometry>
        </mxCell>
        <mxCell id="tCx_VXpLpX52O19AuWsl-163" style="shape=partialRectangle;html=1;whiteSpace=wrap;connectable=0;strokeColor=inherit;overflow=hidden;fillColor=none;top=0;left=0;bottom=0;right=0;pointerEvents=1;fontSize=16;" parent="tCx_VXpLpX52O19AuWsl-157" vertex="1">
          <mxGeometry x="550" width="170" height="110" as="geometry">
            <mxRectangle width="170" height="110" as="alternateBounds" />
          </mxGeometry>
        </mxCell>
        <mxCell id="tCx_VXpLpX52O19AuWsl-210" value="" style="shape=table;startSize=0;container=1;collapsible=0;childLayout=tableLayout;fontSize=16;" parent="1" vertex="1">
          <mxGeometry x="140" y="290" width="200" height="110" as="geometry" />
        </mxCell>
        <mxCell id="tCx_VXpLpX52O19AuWsl-211" value="" style="shape=tableRow;horizontal=0;startSize=0;swimlaneHead=0;swimlaneBody=0;strokeColor=inherit;top=0;left=0;bottom=0;right=0;collapsible=0;dropTarget=0;fillColor=none;points=[[0,0.5],[1,0.5]];portConstraint=eastwest;fontSize=16;" parent="tCx_VXpLpX52O19AuWsl-210" vertex="1">
          <mxGeometry width="200" height="110" as="geometry" />
        </mxCell>
        <mxCell id="tCx_VXpLpX52O19AuWsl-212" value="Əsas funksionallıq" style="shape=partialRectangle;html=1;whiteSpace=wrap;connectable=0;strokeColor=inherit;overflow=hidden;fillColor=none;top=0;left=0;bottom=0;right=0;pointerEvents=1;fontSize=16;" parent="tCx_VXpLpX52O19AuWsl-211" vertex="1">
          <mxGeometry width="100" height="110" as="geometry">
            <mxRectangle width="100" height="110" as="alternateBounds" />
          </mxGeometry>
        </mxCell>
        <mxCell id="tCx_VXpLpX52O19AuWsl-214" value="Əlavə funksionallıq" style="shape=partialRectangle;html=1;whiteSpace=wrap;connectable=0;strokeColor=inherit;overflow=hidden;fillColor=none;top=0;left=0;bottom=0;right=0;pointerEvents=1;fontSize=16;" parent="tCx_VXpLpX52O19AuWsl-211" vertex="1">
          <mxGeometry x="100" width="100" height="110" as="geometry">
            <mxRectangle width="100" height="110" as="alternateBounds" />
          </mxGeometry>
        </mxCell>
        <mxCell id="tCx_VXpLpX52O19AuWsl-235" value="" style="shape=table;startSize=0;container=1;collapsible=0;childLayout=tableLayout;fontSize=16;" parent="1" vertex="1">
          <mxGeometry x="340" y="290" width="260" height="110" as="geometry" />
        </mxCell>
        <mxCell id="tCx_VXpLpX52O19AuWsl-236" value="" style="shape=tableRow;horizontal=0;startSize=0;swimlaneHead=0;swimlaneBody=0;strokeColor=inherit;top=0;left=0;bottom=0;right=0;collapsible=0;dropTarget=0;fillColor=none;points=[[0,0.5],[1,0.5]];portConstraint=eastwest;fontSize=16;" parent="tCx_VXpLpX52O19AuWsl-235" vertex="1">
          <mxGeometry width="260" height="110" as="geometry" />
        </mxCell>
        <mxCell id="tCx_VXpLpX52O19AuWsl-237" value="Əsas funksionallıq" style="shape=partialRectangle;html=1;whiteSpace=wrap;connectable=0;strokeColor=inherit;overflow=hidden;fillColor=none;top=0;left=0;bottom=0;right=0;pointerEvents=1;fontSize=16;" parent="tCx_VXpLpX52O19AuWsl-236" vertex="1">
          <mxGeometry width="130" height="110" as="geometry">
            <mxRectangle width="130" height="110" as="alternateBounds" />
          </mxGeometry>
        </mxCell>
        <mxCell id="tCx_VXpLpX52O19AuWsl-238" value="Əlavə funksionallıq" style="shape=partialRectangle;html=1;whiteSpace=wrap;connectable=0;strokeColor=inherit;overflow=hidden;fillColor=none;top=0;left=0;bottom=0;right=0;pointerEvents=1;fontSize=16;" parent="tCx_VXpLpX52O19AuWsl-236" vertex="1">
          <mxGeometry x="130" width="130" height="110" as="geometry">
            <mxRectangle width="130" height="110" as="alternateBounds" />
          </mxGeometry>
        </mxCell>
        <mxCell id="tCx_VXpLpX52O19AuWsl-289" value="" style="line;strokeWidth=1;direction=south;html=1;perimeter=backbonePerimeter;points=[];outlineConnect=0;" parent="1" vertex="1">
          <mxGeometry x="235" y="400" width="10" height="110" as="geometry" />
        </mxCell>
        <mxCell id="tCx_VXpLpX52O19AuWsl-292" value="&lt;font style=&quot;font-size: 20px;&quot;&gt;1&lt;/font&gt;" style="ellipse;whiteSpace=wrap;html=1;aspect=fixed;" parent="1" vertex="1">
          <mxGeometry x="160" y="427.5" width="55" height="55" as="geometry" />
        </mxCell>
        <mxCell id="tCx_VXpLpX52O19AuWsl-293" value="&lt;font style=&quot;font-size: 20px;&quot;&gt;3&lt;/font&gt;" style="ellipse;whiteSpace=wrap;html=1;aspect=fixed;" parent="1" vertex="1">
          <mxGeometry x="260" y="427.5" width="55" height="55" as="geometry" />
        </mxCell>
        <mxCell id="tCx_VXpLpX52O19AuWsl-294" value="" style="line;strokeWidth=1;direction=south;html=1;perimeter=backbonePerimeter;points=[];outlineConnect=0;" parent="1" vertex="1">
          <mxGeometry x="465" y="390" width="10" height="120" as="geometry" />
        </mxCell>
        <mxCell id="tCx_VXpLpX52O19AuWsl-296" value="&lt;font style=&quot;font-size: 20px;&quot;&gt;5&lt;/font&gt;" style="ellipse;whiteSpace=wrap;html=1;aspect=fixed;" parent="1" vertex="1">
          <mxGeometry x="380" y="427.5" width="55" height="55" as="geometry" />
        </mxCell>
        <mxCell id="tCx_VXpLpX52O19AuWsl-297" value="&lt;font style=&quot;font-size: 20px;&quot;&gt;6&lt;/font&gt;" style="ellipse;whiteSpace=wrap;html=1;aspect=fixed;" parent="1" vertex="1">
          <mxGeometry x="510" y="427.5" width="55" height="55" as="geometry" />
        </mxCell>
        <mxCell id="tCx_VXpLpX52O19AuWsl-298" value="&lt;font style=&quot;font-size: 20px;&quot;&gt;7&lt;/font&gt;" style="ellipse;whiteSpace=wrap;html=1;aspect=fixed;" parent="1" vertex="1">
          <mxGeometry x="650" y="427.5" width="55" height="55" as="geometry" />
        </mxCell>
        <mxCell id="tCx_VXpLpX52O19AuWsl-300" value="" style="line;strokeWidth=1;direction=south;html=1;perimeter=backbonePerimeter;points=[];outlineConnect=0;" parent="1" vertex="1">
          <mxGeometry x="235" y="510" width="10" height="110" as="geometry" />
        </mxCell>
        <mxCell id="tCx_VXpLpX52O19AuWsl-302" value="&lt;font style=&quot;font-size: 20px;&quot;&gt;2&lt;/font&gt;" style="ellipse;whiteSpace=wrap;html=1;aspect=fixed;" parent="1" vertex="1">
          <mxGeometry x="160" y="537.5" width="55" height="55" as="geometry" />
        </mxCell>
        <mxCell id="tCx_VXpLpX52O19AuWsl-303" value="&lt;font style=&quot;font-size: 20px;&quot;&gt;4&lt;/font&gt;" style="ellipse;whiteSpace=wrap;html=1;aspect=fixed;" parent="1" vertex="1">
          <mxGeometry x="260" y="537.5" width="55" height="55" as="geometry" />
        </mxCell>
        <mxCell id="tCx_VXpLpX52O19AuWsl-304" value="&lt;font style=&quot;font-size: 20px;&quot;&gt;8&lt;/font&gt;" style="ellipse;whiteSpace=wrap;html=1;aspect=fixed;" parent="1" vertex="1">
          <mxGeometry x="386" y="537.5" width="55" height="55" as="geometry" />
        </mxCell>
        <mxCell id="tCx_VXpLpX52O19AuWsl-305" value="&lt;font style=&quot;font-size: 20px;&quot;&gt;9&lt;/font&gt;" style="ellipse;whiteSpace=wrap;html=1;aspect=fixed;" parent="1" vertex="1">
          <mxGeometry x="510" y="537.5" width="55" height="55" as="geometry" />
        </mxCell>
        <mxCell id="tCx_VXpLpX52O19AuWsl-306" value="&lt;font style=&quot;font-size: 20px;&quot;&gt;10&lt;/font&gt;" style="ellipse;whiteSpace=wrap;html=1;aspect=fixed;" parent="1" vertex="1">
          <mxGeometry x="650" y="537.5" width="55" height="55" as="geometry" />
        </mxCell>
        <mxCell id="tCx_VXpLpX52O19AuWsl-308" value="" style="line;strokeWidth=1;direction=south;html=1;perimeter=backbonePerimeter;points=[];outlineConnect=0;" parent="1" vertex="1">
          <mxGeometry x="465" y="510" width="10" height="110" as="geometry" />
        </mxCell>
      </root>
    </mxGraphModel>
  </diagram>
</mxfile>
